<svg id="Layer_1" data-name="Layer 1" xmlns="http://www.w3.org/2000/svg" xmlns:xlink="http://www.w3.org/1999/xlink" viewBox="0 0 209.76 118.38"><defs><style>.cls-1{fill:#f69221;}.cls-2{fill:#333;stroke:#fff;stroke-miterlimit:10;}.cls-3{fill:#fff;}.cls-4{fill:#fbb042;}.cls-5{fill:url(#linear-gradient);}</style><linearGradient id="linear-gradient" x1="119.48" y1="-25.89" x2="119.48" y2="104.7" gradientUnits="userSpaceOnUse"><stop offset="0.04" stop-color="#f7941d"/><stop offset="0.7" stop-color="#fbb040"/></linearGradient></defs><path class="cls-1" d="M107.64,89c1.13-2.92.12-4.73-2.4-6.41-2.84-1.89-2.91-3-1.3-6a2.26,2.26,0,0,0-.26-2.92c-1.5-1.56-3.06-3.06-4.82-4.8-6.48,9.45-12.31,19-21.89,26,2.62-.28,4.87-.63,7.14-.72,2.79-.12,5.74-.23,8.16,1.28,3.55,2.23,7.16,2.25,11,1.21a10.27,10.27,0,0,1,6,.06c.4.12.83.16,1.61.32a26.28,26.28,0,0,0-2.15-3.5A4.2,4.2,0,0,1,107.64,89Z" transform="translate(-15.69 -14.04)"/><path class="cls-1" d="M130.08,78a3.84,3.84,0,0,1-.74-3.75,11.72,11.72,0,0,0,1.53,1.62c.43.31,1.21.66,1.51.48a2.08,2.08,0,0,0,.55-1.55,3.69,3.69,0,0,0-.51-1.73c-1.39-2.35-2.86-4.66-4.25-7a9.84,9.84,0,0,1-1.25-2.72c-.61-2.7-1.06-5.44-1.57-8.18-.28-1.57-1-2-2.09-.91a44.2,44.2,0,0,0-4.44,5.3c-1.22,1.67-2.17,3.53-3.35,5.24-1.69,2.46-3.52,4.83-5.2,7.31-.3.43-.46,1.49-.21,1.7,3.06,2.59,5.68,5.89,10.13,6.28a7.27,7.27,0,0,1,5,2.8,21,21,0,0,0,4.48,3.81c1.9,1.24,3.83.06,3.79-2.23a5.83,5.83,0,0,0-.79-2.72C131.94,80.42,130.93,79.26,130.08,78Z" transform="translate(-15.69 -14.04)"/><path class="cls-1" d="M160.49,86.46c-2.26-1.14-2.73-1.85-2.62-4.41a13,13,0,0,0,0-2,4.87,4.87,0,0,0-1.83-3.83c-1.41,2.33-2.76,4.51-4,6.74-.16.28.06.85.22,1.23a16.5,16.5,0,0,0,8.17,8.64c3.31,1.56,6.64,3.07,10,4.6l.26-.42a5.64,5.64,0,0,0-.39-1.09A22.9,22.9,0,0,0,160.49,86.46Z" transform="translate(-15.69 -14.04)"/><path class="cls-2" d="M188.36,101.35c-1.41-2.68-2.6-5.49-3.88-8.24a9.07,9.07,0,0,0-.88-1.47,6.2,6.2,0,0,0-5.36-2.5c-4.26,0-7.11-2.24-8.5-6.29-.46-1.32-.86-2.91-1.82-3.77-2.79-2.5-5.8-4.76-8.82-7-1.51-1.1-2.83-.79-4,.68-.75.95-1.35,2-2,3l-3.58,5.7c-2.16-2.33-4.45-4.18-5.93-6.53a81.79,81.79,0,0,0-7.73-9.91c-1.46-1.68-2.58-3.66-4.08-5.3a11.17,11.17,0,0,1-2.3-4.68A16,16,0,0,0,127,49.52c-2.53-3.1-4-2.77-6,.71a18.92,18.92,0,0,1-2.86,4.43,32.43,32.43,0,0,0-5.44,7.07c-1.75,2.93-3.76,5.72-5.72,8.67-.7-.6-1.15-1-1.62-1.38-2.07-1.72-4.09-3.49-6.23-5.11-1.45-1.09-2-.92-2.93.59-.6.94-1.15,1.91-1.66,2.9A56.21,56.21,0,0,1,79.9,84.92c-2.16,1.77-4.61,3.13-6.08,5.63a2.68,2.68,0,0,1-.76.74c-2.53,1.86-5,3.82-7.63,5.52q-3.66,2.34-7.4,4.63c-2.64,1.62-5.31,3.25-8,4.92H191.63A59.06,59.06,0,0,1,188.36,101.35ZM109.21,96.7a10.27,10.27,0,0,0-6-.06c-3.79,1-7.4,1-11-1.21-2.42-1.51-5.37-1.4-8.16-1.28-2.27.09-4.52.44-7.14.72C86.55,88,92.38,78.37,98.86,68.92c1.76,1.74,3.32,3.24,4.82,4.8a2.26,2.26,0,0,1,.26,2.92c-1.61,3-1.54,4.09,1.3,6,2.52,1.68,3.53,3.49,2.4,6.41a4.2,4.2,0,0,0,1,4.49,26.28,26.28,0,0,1,2.15,3.5C110,96.86,109.61,96.82,109.21,96.7Zm20.48-10a21,21,0,0,1-4.48-3.81,7.27,7.27,0,0,0-5-2.8c-4.45-.39-7.07-3.69-10.13-6.28-.25-.21-.09-1.27.21-1.7,1.68-2.48,3.51-4.85,5.2-7.31,1.18-1.71,2.13-3.57,3.35-5.24a44.2,44.2,0,0,1,4.44-5.3c1.1-1.08,1.81-.66,2.09.91.51,2.74,1,5.48,1.57,8.18a9.84,9.84,0,0,0,1.25,2.72c1.39,2.35,2.86,4.66,4.25,7a3.69,3.69,0,0,1,.51,1.73,2.08,2.08,0,0,1-.55,1.55c-.3.18-1.08-.17-1.51-.48a11.72,11.72,0,0,1-1.53-1.62,3.84,3.84,0,0,0,.74,3.75c.85,1.27,1.86,2.43,2.61,3.74a5.83,5.83,0,0,1,.79,2.72C133.52,86.74,131.59,87.92,129.69,86.68ZM170.4,97.46c-3.32-1.53-6.65-3-10-4.6a16.5,16.5,0,0,1-8.17-8.64c-.16-.38-.38-1-.22-1.23,1.27-2.23,2.62-4.41,4-6.74a4.87,4.87,0,0,1,1.83,3.83,13,13,0,0,1,0,2c-.11,2.56.36,3.27,2.62,4.41A22.9,22.9,0,0,1,170.27,96a5.64,5.64,0,0,1,.39,1.09Z" transform="translate(-15.69 -14.04)"/><path class="cls-3" d="M77,94.87C86.55,88,92.38,78.37,98.86,68.92c1.76,1.74,3.32,3.24,4.82,4.8a2.26,2.26,0,0,1,.26,2.92c-1.61,3-1.54,4.09,1.3,6,2.52,1.68,3.53,3.49,2.4,6.41a4.2,4.2,0,0,0,1,4.49,26.28,26.28,0,0,1,2.15,3.5c-.78-.16-1.21-.2-1.61-.32a10.27,10.27,0,0,0-6-.06c-3.79,1-7.4,1-11-1.21-2.42-1.51-5.37-1.4-8.16-1.28C81.84,94.24,79.59,94.59,77,94.87Z" transform="translate(-15.69 -14.04)"/><path class="cls-3" d="M129.34,74.24a3.84,3.84,0,0,0,.74,3.75c.85,1.27,1.86,2.43,2.61,3.74a5.83,5.83,0,0,1,.79,2.72c0,2.29-1.89,3.47-3.79,2.23a21,21,0,0,1-4.48-3.81,7.27,7.27,0,0,0-5-2.8c-4.45-.39-7.07-3.69-10.13-6.28-.25-.21-.09-1.27.21-1.7,1.68-2.48,3.51-4.85,5.2-7.31,1.18-1.71,2.13-3.57,3.35-5.24a44.2,44.2,0,0,1,4.44-5.3c1.1-1.08,1.81-.66,2.09.91.51,2.74,1,5.48,1.57,8.18a9.84,9.84,0,0,0,1.25,2.72c1.39,2.35,2.86,4.66,4.25,7a3.69,3.69,0,0,1,.51,1.73,2.08,2.08,0,0,1-.55,1.55c-.3.18-1.08-.17-1.51-.48A11.72,11.72,0,0,1,129.34,74.24Z" transform="translate(-15.69 -14.04)"/><path class="cls-3" d="M156.08,76.25a4.87,4.87,0,0,1,1.83,3.83,13,13,0,0,1,0,2c-.11,2.56.36,3.27,2.62,4.41A22.9,22.9,0,0,1,170.27,96a5.64,5.64,0,0,1,.39,1.09l-.26.42c-3.32-1.53-6.65-3-10-4.6a16.5,16.5,0,0,1-8.17-8.64c-.16-.38-.38-1-.22-1.23C153.32,80.76,154.67,78.58,156.08,76.25Z" transform="translate(-15.69 -14.04)"/><path class="cls-4" d="M17.25,128.12a5.87,5.87,0,0,0,4.25,1.8c1.56,0,2.32-.74,2.32-1.5,0-1-1.16-1.34-2.7-1.7-2.18-.5-5-1.1-5-4.08,0-2.22,1.93-4,5.07-4a7.42,7.42,0,0,1,5.2,1.86l-1.58,2.08A5.69,5.69,0,0,0,21,121.1c-1.28,0-2,.56-2,1.36s1.12,1.18,2.66,1.54c2.2.5,5,1.16,5,4.12,0,2.44-1.74,4.28-5.34,4.28a7.71,7.71,0,0,1-5.67-2.12Z" transform="translate(-15.69 -14.04)"/><path class="cls-4" d="M28.61,118.82H31.5v7.92a2.85,2.85,0,0,0,3.1,3.14,2.84,2.84,0,0,0,3.06-3.14v-7.92h2.88v8c0,3.32-1.9,5.58-5.94,5.58s-6-2.28-6-5.56Z" transform="translate(-15.69 -14.04)"/><path class="cls-4" d="M46,123.2v9H43.17V118.82h2.92l6.19,8.64v-8.64h2.84v13.34H52.38Z" transform="translate(-15.69 -14.04)"/><path class="cls-4" d="M62.68,127.38H60.59v4.78H57.75V118.82H64a4.15,4.15,0,0,1,4.48,4.3,3.83,3.83,0,0,1-2.92,4l3,5.08H65.3Zm.9-6.12h-3v3.68h3a1.85,1.85,0,1,0,0-3.68Z" transform="translate(-15.69 -14.04)"/><path class="cls-4" d="M70.61,118.82h2.85v13.34H70.61Z" transform="translate(-15.69 -14.04)"/><path class="cls-4" d="M76.09,118.82h5.26c4.19,0,7.09,2.66,7.09,6.68s-2.9,6.66-7.09,6.66H76.09Zm5.26,10.84a4,4,0,0,0,4.19-4.16,3.91,3.91,0,0,0-4.19-4.18H78.93v8.34Z" transform="translate(-15.69 -14.04)"/><path class="cls-4" d="M96.92,118.6a6.25,6.25,0,0,1,5.52,2.92l-2.36,1.28a3.79,3.79,0,0,0-3.16-1.68,4.38,4.38,0,0,0,0,8.76,4.51,4.51,0,0,0,2.88-1v-1.62H96.23V124.8h6.37v5.1a7.4,7.4,0,0,1-5.68,2.52,6.91,6.91,0,1,1,0-13.82Z" transform="translate(-15.69 -14.04)"/><path class="cls-4" d="M104.85,118.82h9.45v2.44h-6.61v2.9h6.47v2.44h-6.47v3.1h6.61v2.46h-9.45Z" transform="translate(-15.69 -14.04)"/><path class="cls-4" d="M122.27,128.12a5.85,5.85,0,0,0,4.24,1.8c1.56,0,2.32-.74,2.32-1.5,0-1-1.16-1.34-2.7-1.7-2.18-.5-5-1.1-5-4.08,0-2.22,1.92-4,5.06-4a7.46,7.46,0,0,1,5.21,1.86l-1.59,2.08A5.69,5.69,0,0,0,126,121.1c-1.28,0-2,.56-2,1.36s1.12,1.18,2.66,1.54c2.2.5,5,1.16,5,4.12,0,2.44-1.74,4.28-5.34,4.28a7.69,7.69,0,0,1-5.66-2.12Z" transform="translate(-15.69 -14.04)"/><path class="cls-4" d="M140,118.6a6.9,6.9,0,1,1-7,6.9A6.71,6.71,0,0,1,140,118.6Zm0,2.52c-2.46,0-4,1.88-4,4.38s1.58,4.38,4,4.38a4.39,4.39,0,0,0,0-8.76Z" transform="translate(-15.69 -14.04)"/><path class="cls-4" d="M148.93,118.82h9.44v2.44h-6.6v2.9h6.46v2.44h-6.46v5.56h-2.84Z" transform="translate(-15.69 -14.04)"/><path class="cls-4" d="M163.43,121.32h-3.9v-2.5h10.64v2.5h-3.88v10.84h-2.86Z" transform="translate(-15.69 -14.04)"/><path class="cls-4" d="M179.85,123l-2.32,9.16h-3l-3.82-13.34h3.18l2.34,9.64,2.54-9.64H181l2.52,9.64,2.33-9.64H189l-3.81,13.34h-3Z" transform="translate(-15.69 -14.04)"/><path class="cls-4" d="M198,129.86h-6l-.84,2.3h-3.12l5.16-13.34h3.56l5.15,13.34h-3.11Zm-5.2-2.46h4.42l-2.2-6.12Z" transform="translate(-15.69 -14.04)"/><path class="cls-4" d="M208.07,127.38H206v4.78h-2.84V118.82h6.24a4.16,4.16,0,0,1,4.49,4.3,3.84,3.84,0,0,1-2.93,4l3,5.08h-3.27Zm.9-6.12h-3v3.68h3a1.85,1.85,0,1,0,0-3.68Z" transform="translate(-15.69 -14.04)"/><path class="cls-4" d="M216,118.82h9.45v2.44h-6.61v2.9h6.46v2.44h-6.46v3.1h6.61v2.46H216Z" transform="translate(-15.69 -14.04)"/><path class="cls-5" d="M165.69,65.35a44.78,44.78,0,0,0-9.15-.6c0-.17-.76-.26-1.53-.34-2.29-.09-5.34,0-7.63,0a19.57,19.57,0,0,1,2.29-.09c.77-.08-1.52-.25-.76-.34,1.53-.08,3.81,0,5.34,0v-.17h-6.1c-2.29-.09-3.05-.34-2.29-.43,3-.17,6.86-.08,9.92-.08-.77,0-.77-.09-.77-.17h9.92V63H163.4v-.35c3.82-.08,12.21,0,10.68-.59h-1.52v-.26c-3.05-.09-6.87-.17-9.92-.26v-.25h2.29a20.92,20.92,0,0,1-3.82-.34c-2.28-.35-7.62-.17-12.2-.26-.76,0-.76-.17-.76-.26-3.05.09-5.34-.08-8.4-.17,12.21-.25,24.42.17,36.62-.25,1.53,0,.77-.26,2.29-.26H181c-.74-.17,0-.33.7-.34A65.29,65.29,0,0,0,61.18,50c4.69.06,9.38.14,14,.29a44,44,0,0,1,5,.09,44.78,44.78,0,0,0,9.15.6c0,.17.76.26,1.53.34,2.29.09,5.34,0,7.63,0a19.57,19.57,0,0,1-2.29.09c-.77.08,1.52.25.76.34-1.53.08-3.81,0-5.34,0v.17h6.1c2.29.09,3,.34,2.29.43-3,.17-6.86.08-9.92.08.77,0,.77.09.77.17H80.89v.17h1.53v.35c-3.82.08-12.21,0-10.69.59h1.53v.26c3,.09,6.87.17,9.92.26v.25H80.89a20.66,20.66,0,0,1,3.81.34c2.29.35,7.63.17,12.21.26.76,0,.76.17.76.26,3-.09,5.34.08,8.4.17-12.21.25-24.42-.17-36.63.25-1.52,0-.76.26-2.28.26H64.87c.76.17,0,.34-.76.34l-5.78.13a65.46,65.46,0,0,0-.3,45q3.73-2.3,7.4-4.63c2.63-1.7,5.1-3.66,7.63-5.52a2.68,2.68,0,0,0,.76-.74c1.47-2.5,3.92-3.86,6.08-5.63A56.21,56.21,0,0,0,94.52,67.4c.51-1,1.06-2,1.66-2.9.95-1.51,1.48-1.68,2.93-.59,2.14,1.62,4.16,3.39,6.23,5.11.47.38.92.78,1.62,1.38,2-3,4-5.74,5.72-8.67a32.43,32.43,0,0,1,5.44-7.07A18.92,18.92,0,0,0,121,50.23c2-3.48,3.47-3.81,6-.71a16,16,0,0,1,2.48,5.59,11.17,11.17,0,0,0,2.3,4.68c1.5,1.64,2.62,3.62,4.08,5.3A81.79,81.79,0,0,1,143.57,75c1.48,2.35,3.77,4.2,5.93,6.53l3.58-5.7c.66-1,1.26-2.09,2-3,1.18-1.47,2.5-1.78,4-.68,3,2.21,6,4.47,8.82,7,1,.86,1.36,2.45,1.82,3.77,1.39,4.05,4.24,6.3,8.5,6.29a6.2,6.2,0,0,1,5.36,2.5,65.47,65.47,0,0,0-.26-25.93c-4.26-.06-8.51-.13-12.69-.27A44,44,0,0,1,165.69,65.35Z" transform="translate(-15.69 -14.04)"/><path class="cls-3" d="M64.87,56h2.29c1.52,0,.76-.26,2.28-.26,12.21-.42,24.42,0,36.63-.25-3.06-.09-5.35-.26-8.4-.17,0-.09,0-.26-.76-.26-4.58-.09-9.92.09-12.21-.26a20.66,20.66,0,0,0-3.81-.34h2.29v-.25c-3.05-.09-6.87-.17-9.92-.26v-.26H71.73c-1.52-.59,6.87-.51,10.69-.59v-.35H80.89v-.17h9.92c0-.08,0-.17-.77-.17,3.06,0,6.87.09,9.92-.08.76-.09,0-.34-2.29-.43h-6.1V51.7c1.53,0,3.81.08,5.34,0,.76-.09-1.53-.26-.76-.34a19.57,19.57,0,0,0,2.29-.09c-2.29,0-5.34.09-7.63,0-.77-.08-1.53-.17-1.53-.34a44.78,44.78,0,0,1-9.15-.6,44,44,0,0,0-5-.09h0c-4.61-.15-9.3-.23-14-.29a64.75,64.75,0,0,0-2.85,6.49l5.78-.13C64.87,56.31,65.63,56.14,64.87,56Z" transform="translate(-15.69 -14.04)"/><path class="cls-3" d="M75.55,50.25h0Z" transform="translate(-15.69 -14.04)"/><path class="cls-3" d="M181,59.71h-2.29c-1.52,0-.76.26-2.29.26-12.2.42-24.41,0-36.62.25,3.06.09,5.35.26,8.4.17,0,.09,0,.26.76.26,4.58.09,9.92-.09,12.2.26a20.92,20.92,0,0,0,3.82.34h-2.29v.25c3.05.09,6.87.17,9.92.26V62h1.52c1.53.59-6.86.51-10.68.59V63h1.53v.17H155c0,.08,0,.17.77.17-3.06,0-6.87-.09-9.92.08-.76.09,0,.34,2.29.43h6.1V64c-1.53,0-3.81-.08-5.34,0-.76.09,1.53.26.76.34a19.57,19.57,0,0,0-2.29.09c2.29,0,5.34-.09,7.63,0,.77.08,1.53.17,1.53.34a44.78,44.78,0,0,1,9.15.6,44,44,0,0,0,5,.09h0c4.18.14,8.43.21,12.69.27a63.51,63.51,0,0,0-1.69-6.34C180.91,59.38,180.21,59.54,181,59.71Z" transform="translate(-15.69 -14.04)"/><path class="cls-3" d="M170.27,65.43h0Z" transform="translate(-15.69 -14.04)"/></svg>